<svg xmlns="http://www.w3.org/2000/svg" viewBox="0 0 100 100">
  <defs>
    <linearGradient id="g" x1="0%" y1="0%" x2="100%" y2="100%">
      <stop offset="0%" style="stop-color:#06b6d4"/>
      <stop offset="100%" style="stop-color:#8b5cf6"/>
    </linearGradient>
  </defs>
  <rect width="100" height="100" rx="20" fill="#0a0a0a"/>
  <!-- Tree structure -->
  <circle cx="50" cy="22" r="8" fill="url(#g)"/>
  <circle cx="30" cy="45" r="7" fill="url(#g)" opacity="0.8"/>
  <circle cx="70" cy="45" r="7" fill="url(#g)" opacity="0.8"/>
  <circle cx="18" cy="66" r="6" fill="url(#g)" opacity="0.6"/>
  <circle cx="42" cy="66" r="6" fill="url(#g)" opacity="0.6"/>
  <circle cx="58" cy="66" r="6" fill="url(#g)" opacity="0.6"/>
  <circle cx="82" cy="66" r="6" fill="url(#g)" opacity="0.6"/>
  <!-- Edges -->
  <line x1="50" y1="30" x2="30" y2="38" stroke="#06b6d4" stroke-width="2" opacity="0.5"/>
  <line x1="50" y1="30" x2="70" y2="38" stroke="#8b5cf6" stroke-width="2" opacity="0.5"/>
  <line x1="30" y1="52" x2="18" y2="60" stroke="#06b6d4" stroke-width="1.5" opacity="0.4"/>
  <line x1="30" y1="52" x2="42" y2="60" stroke="#06b6d4" stroke-width="1.5" opacity="0.4"/>
  <line x1="70" y1="52" x2="58" y2="60" stroke="#8b5cf6" stroke-width="1.5" opacity="0.4"/>
  <line x1="70" y1="52" x2="82" y2="60" stroke="#8b5cf6" stroke-width="1.5" opacity="0.4"/>
  <!-- Bottom bar chart hint -->
  <rect x="15" y="80" width="8" height="12" rx="2" fill="#06b6d4" opacity="0.4"/>
  <rect x="27" y="76" width="8" height="16" rx="2" fill="#06b6d4" opacity="0.5"/>
  <rect x="39" y="72" width="8" height="20" rx="2" fill="#22c55e" opacity="0.5"/>
  <rect x="51" y="78" width="8" height="14" rx="2" fill="#8b5cf6" opacity="0.5"/>
  <rect x="63" y="74" width="8" height="18" rx="2" fill="#8b5cf6" opacity="0.5"/>
  <rect x="75" y="70" width="8" height="22" rx="2" fill="#22c55e" opacity="0.6"/>
</svg>
