<svg xmlns="http://www.w3.org/2000/svg" viewBox="0 0 100 100">
  <defs>
    <linearGradient id="g" x1="0%" y1="0%" x2="100%" y2="100%">
      <stop offset="0%" style="stop-color:#14b8a6"/>
      <stop offset="100%" style="stop-color:#5eead4"/>
    </linearGradient>
  </defs>
  <rect width="100" height="100" rx="20" fill="#0a0a0a"/>
  <!-- Test tube -->
  <path d="M40 20 L40 60 C40 72 50 80 50 80 C50 80 60 72 60 60 L60 20" fill="none" stroke="url(#g)" stroke-width="2.5" opacity="0.8" stroke-linecap="round"/>
  <!-- Tube cap -->
  <line x1="36" y1="20" x2="64" y2="20" stroke="url(#g)" stroke-width="3" opacity="0.9" stroke-linecap="round"/>
  <!-- Liquid -->
  <path d="M42 52 L42 60 C42 70 50 76 50 76 C50 76 58 70 58 60 L58 52 Z" fill="url(#g)" opacity="0.4"/>
  <!-- Bubbles -->
  <circle cx="48" cy="58" r="2.5" fill="url(#g)" opacity="0.7"/>
  <circle cx="54" cy="50" r="2" fill="url(#g)" opacity="0.5"/>
  <circle cx="50" cy="44" r="1.5" fill="url(#g)" opacity="0.6"/>
  <!-- Check mark -->
  <path d="M68 34 L73 39 L82 28" fill="none" stroke="#5eead4" stroke-width="3" opacity="0.7" stroke-linecap="round" stroke-linejoin="round"/>
</svg>
