<svg xmlns="http://www.w3.org/2000/svg" viewBox="0 0 100 100">
  <defs>
    <linearGradient id="g" x1="0%" y1="0%" x2="100%" y2="100%">
      <stop offset="0%" style="stop-color:#6366f1"/>
      <stop offset="100%" style="stop-color:#a78bfa"/>
    </linearGradient>
  </defs>
  <rect width="100" height="100" rx="20" fill="#0a0a0a"/>
  <!-- Head -->
  <circle cx="50" cy="30" r="10" fill="url(#g)"/>
  <!-- Body -->
  <path d="M50 42 C38 42 28 52 28 62 L28 68 L72 68 L72 62 C72 52 62 42 50 42Z" fill="url(#g)" opacity="0.8"/>
  <!-- Left member -->
  <circle cx="26" cy="52" r="6" fill="url(#g)" opacity="0.5"/>
  <path d="M26 60 C20 60 15 66 15 72 L15 78 L37 78 L37 72 C37 66 32 60 26 60Z" fill="url(#g)" opacity="0.4"/>
  <!-- Right member -->
  <circle cx="74" cy="52" r="6" fill="url(#g)" opacity="0.5"/>
  <path d="M74 60 C68 60 63 66 63 72 L63 78 L85 78 L85 72 C85 66 80 60 74 60Z" fill="url(#g)" opacity="0.4"/>
</svg>
